<svg xmlns="http://www.w3.org/2000/svg" viewBox="0 0 512 512" fill="none">
  <rect width="512" height="512" rx="128" fill="#47BB7B"/>
  <path d="M120 220C120 220 80 380 160 400C185 406.5 220 360 256 360C292 360 327 406.5 352 400C432 380 392 220 392 220C392 220 370 180 256 180C142 180 120 220 120 220Z" fill="#FFFFFF"/>
  <rect x="156" y="272" width="32" height="12" fill="#E4B347" rx="3" />
  <rect x="166" y="262" width="12" height="32" fill="#E4B347" rx="3" />
  <circle cx="330" cy="285" r="16" fill="#47BB7B" />
  <circle cx="370" cy="250" r="16" fill="#E4B347" />
  <circle cx="370" cy="320" r="16" fill="#E4B347" />
  <circle cx="290" cy="250" r="16" fill="#47BB7B" />
</svg>